<svg width="496" height="496" xmlns="http://www.w3.org/2000/svg" class="svg-inline--fa fa-clock fa-w-16">

 <g width="0" height="0">
  <title width="0" height="0">Layer 1</title>
  <path id="imagebot_1" d="M 248 0 C 111 0 0 111 0 248 S 111 496 248 496 S 496 385 496 248 S 385 0 248 0 z M 248 448 C 137.5 448 48 358.5 48 248 S 137.5 48 248 48 S 448 137.5 448 248 S 358.5 448 248 448 z M 309.8 343.6 L 224.9 281.9 C 221.8 279.6 220 276 220 272.2 L 220 108 C 220 101.4 225.4 96 232 96 L 264 96 C 270.6 96 276 101.4 276 108 L 276 249.7 L 342.8 298.3 C 348.2 302.2 349.3 309.7 345.4 315.1 L 326.6 341 C 322.7 346.3 315.2 347.5 309.8 343.6 z" fill="#f7654a" width="0" height="0"/>
 </g>
</svg>