<svg width="512" height="384" xmlns="http://www.w3.org/2000/svg" class="svg-inline--fa fa-envelope fa-w-16">

 <g width="0" height="0">
  <title width="0" height="0">Layer 1</title>
  <path id="imagebot_1" d="M 464 0 L 48 0 C 21.49 0 0 21.489999999999995 0 48 L 0 336 C 0 362.51 21.49 384 48 384 L 464 384 C 490.51 384 512 362.51 512 336 L 512 48 C 512 21.489999999999995 490.51 0 464 0 z M 464 48 L 464 88.805 C 441.578 107.064 405.832 135.456 329.413 195.29500000000002 C 312.572 208.54199999999997 279.212 240.36700000000002 256 239.99599999999998 C 232.792 240.37099999999998 199.421 208.53699999999998 182.587 195.29500000000002 C 106.18 135.465 70.425 107.06700000000001 48 88.805 L 48 48 L 464 48 z M 48 336 L 48 150.398 C 70.914 168.649 103.409 194.26 152.938 233.04399999999998 C 174.795 250.24900000000002 213.072 288.23 256 287.999 C 298.717 288.23 336.509 250.8 359.053 233.05200000000002 C 408.581 194.269 441.085 168.651 464 150.399 L 464 336 L 48 336 z" fill="#f7654a" width="0" height="0"/>
 </g>
</svg>