<svg width="512" height="512" xmlns="http://www.w3.org/2000/svg" class="svg-inline--fa fa-phone fa-w-16">

 <g width="0" height="0">
  <title width="0" height="0">Layer 1</title>
  <path id="imagebot_1" d="M 493.4104169845581 24.610813772678377 L 389.4104169845581 0.6108137726783752 C 378.1104169845581 -1.9891862273216248 366.5104169845581 3.910813772678375 361.9104169845581 14.510813772678375 L 313.9104169845581 126.51081377267838 C 309.7104169845581 136.3108137726784 312.5104169845581 147.8108137726784 320.8104169845581 154.51081377267838 L 381.4104169845581 204.11081377267837 C 345.4104169845581 280.8108137726784 282.5104169845581 344.6108137726784 204.2104169845581 381.3108137726784 L 154.6104169845581 320.71081377267836 C 147.81041698455812 312.41081377267835 136.4104169845581 309.6108137726784 126.6104169845581 313.8108137726784 L 14.610416984558105 361.8108137726784 C 3.9104169845581054 366.5108137726784 -1.9895830154418945 378.1108137726784 0.6104169845581054 389.41081377267835 L 24.610416984558107 493.41081377267835 C 27.110416984558107 504.21081377267836 36.71041698455811 512.0108137726784 48.010416984558105 512.0108137726784 C 304.1104169845581 512.0108137726784 512.0104169845581 304.5108137726784 512.0104169845581 48.010813772678375 C 512.0104169845581 36.81081377267837 504.3104169845581 27.110813772678377 493.4104169845581 24.610813772678377 z" fill="#f7654a" width="0" height="0"/>
 </g>
</svg>